<?xml version="1.0" encoding="UTF-8" standalone="no"?>
<!DOCTYPE svg PUBLIC "-//W3C//DTD SVG 20010904//EN"
              "http://www.w3.org/TR/2001/REC-SVG-20010904/DTD/svg10.dtd">
<svg version="1.1" xmlns="http://www.w3.org/2000/svg" width="24px" height="24px" x="0px" y="0px"
     viewBox="0 0 500 500">
    <g color="white">
        <path id="Selection"
            fill="currentColor" stroke="#1c1c1c" stroke-width="4"
            d="M 185.99,227.00
            C 186.00,227.00 181.00,23.00 181.00,23.00
             181.00,23.00 136.94,38.00 136.94,38.00
             136.94,38.00 156.96,482.00 156.96,482.00
             156.96,482.00 191.96,469.00 191.96,469.00
             191.96,469.00 186.96,238.00 186.96,238.00
             186.96,238.00 303.96,207.00 303.96,207.00
             303.96,207.00 237.04,496.04 237.04,496.04
             237.04,496.04 420.96,102.00 420.96,102.00
             420.96,102.00 299.96,133.00 299.96,133.00
             299.96,133.00 346.96,0.00 346.96,0.00
             346.96,0.00 239.96,0.14 239.96,0.14
             239.96,0.14 185.99,227.00 185.99,227.00 Z" />
    </g>
</svg>
